<svg width="32.625000" height="32.618103" viewBox="0 0 32.625 32.6181" fill="none" xmlns="http://www.w3.org/2000/svg" xmlns:xlink="http://www.w3.org/1999/xlink">
	
	<defs/>
	<path id="Vector" d="M3.9375 11.8125L21.9375 11.8125C23.8015 11.8125 25.3125 13.3235 25.3125 15.1875L25.3125 23.0625C25.3125 24.9265 23.8015 26.4375 21.9375 26.4375L3.9375 26.4375C2.07349 26.4375 0.5625 24.9265 0.5625 23.0625L0.5625 15.1875C0.5625 13.3235 2.07349 11.8125 3.9375 11.8125Z" fill="#FF3D00" fill-opacity="1.000000" fill-rule="evenodd"/>
	<path id="Vector" d="M32.0625 24.1875L25.3125 20.8125L25.3125 17.4375L32.0625 14.0625L32.0625 24.1875Z" fill="#FF3D00" fill-opacity="1.000000" fill-rule="nonzero"/>
	<path id="Vector" d="M23.0625 5.0625C23.0625 7.54779 21.0479 9.5625 18.5625 9.5625C16.0771 9.5625 14.0625 7.54779 14.0625 5.0625C14.0625 2.57721 16.0771 0.5625 18.5625 0.5625C21.0479 0.5625 23.0625 2.57721 23.0625 5.0625Z" fill="#FF3D00" fill-opacity="1.000000" fill-rule="evenodd"/>
	<path id="Vector" d="M10.6875 6.1875C10.6875 8.05145 9.17651 9.5625 7.3125 9.5625C5.44849 9.5625 3.9375 8.05145 3.9375 6.1875C3.9375 4.32355 5.44849 2.8125 7.3125 2.8125C9.17651 2.8125 10.6875 4.32355 10.6875 6.1875Z" fill="#FF3D00" fill-opacity="1.000000" fill-rule="evenodd"/>
	<path id="Vector" d="M32.3584 13.5844C32.2769 13.5341 32.1836 13.5054 32.0879 13.5011C31.9922 13.4968 31.897 13.5169 31.811 13.5596L25.875 16.5274L25.875 15.1875C25.8738 14.1436 25.4585 13.1428 24.7205 12.4046C23.9822 11.6664 22.9814 11.2512 21.9375 11.25L3.9375 11.25C2.89355 11.2512 1.89282 11.6664 1.15454 12.4046C0.416504 13.1428 0.0012207 14.1436 0 15.1875L0 23.0625C0.0012207 24.1064 0.416504 25.1072 1.15454 25.8454C1.89282 26.5836 2.89355 26.9988 3.9375 27L11.5796 27L6.91479 31.6648C6.81226 31.7709 6.75562 31.913 6.75684 32.0605C6.7583 32.2079 6.81738 32.3491 6.92163 32.4534C7.02588 32.5576 7.16699 32.6168 7.31445 32.618C7.46191 32.6193 7.71021 32.4602 7.71021 32.4602L12.9375 27.2328L18.1648 32.4602C18.271 32.5626 18.4131 32.6193 18.5605 32.618C18.708 32.6168 18.8491 32.5576 18.9534 32.4534C19.0576 32.3491 19.1167 32.2079 19.1182 32.0605C19.1194 31.913 19.0627 31.7709 18.9602 31.6648L14.2954 27L21.9375 27C22.9814 26.9988 23.9822 26.5836 24.7205 25.8454C25.4585 25.1072 25.8738 24.1064 25.875 23.0625L25.875 21.7227L31.811 24.6909C31.8967 24.7338 31.9922 24.754 32.0879 24.7497C32.1838 24.7454 32.2769 24.7166 32.3584 24.6661C32.4399 24.6157 32.5073 24.5452 32.554 24.4615C32.6006 24.3777 32.625 24.2834 32.625 24.1875L32.625 14.0625C32.625 13.9667 32.6003 13.8725 32.5537 13.7888C32.5071 13.7051 32.4399 13.6348 32.3584 13.5844ZM24.75 23.0625C24.749 23.8082 24.4524 24.523 23.9253 25.0502C23.3979 25.5775 22.6831 25.8741 21.9375 25.875L3.9375 25.875C3.19189 25.8741 2.47705 25.5775 1.94971 25.0502C1.42261 24.523 1.12598 23.8082 1.125 23.0625L1.125 15.1875C1.12598 14.4418 1.42261 13.727 1.94971 13.1998C2.47705 12.6725 3.19189 12.3759 3.9375 12.375L21.9375 12.375C22.6831 12.3759 23.3979 12.6725 23.9253 13.1998C24.4524 13.727 24.749 14.4418 24.75 15.1875L24.75 23.0625ZM31.5 23.2774L25.875 20.4649L25.875 17.7852L31.5 14.9727L31.5 23.2774ZM18.5625 10.125C19.5637 10.125 20.5425 9.82806 21.375 9.27179C22.2075 8.71552 22.8564 7.92487 23.2397 6.99982C23.6228 6.07477 23.7231 5.05688 23.5278 4.07483C23.3323 3.09283 22.8503 2.1908 22.1423 1.48279C21.4343 0.77478 20.5322 0.292603 19.55 0.09729C18.5681 -0.0980835 17.5503 0.00219727 16.6252 0.385376C15.7002 0.768555 14.9094 1.41742 14.3533 2.24994C13.7969 3.08246 13.5 4.06122 13.5 5.0625C13.5015 6.40472 14.0354 7.69153 14.9844 8.64056C15.9336 9.58966 17.2202 10.1235 18.5625 10.125ZM18.5625 1.125C19.3413 1.125 20.1025 1.35596 20.75 1.78857C21.3975 2.22125 21.9023 2.83618 22.2002 3.55566C22.4983 4.27515 22.5762 5.06689 22.4243 5.83069C22.2725 6.59448 21.8975 7.29608 21.3467 7.84674C20.7961 8.3974 20.0945 8.7724 19.3306 8.92432C18.5669 9.07629 17.7751 8.99829 17.0557 8.70026C16.3362 8.40228 15.7212 7.89758 15.2886 7.25006C14.856 6.60254 14.625 5.84125 14.625 5.0625C14.6262 4.01855 15.0415 3.01776 15.7795 2.2796C16.5178 1.54144 17.5186 1.12622 18.5625 1.125ZM7.3125 10.125C8.09131 10.125 8.85254 9.89404 9.5 9.46143C10.1475 9.02875 10.6523 8.41382 10.9502 7.69434C11.2483 6.97485 11.3262 6.18311 11.1743 5.41931C11.0225 4.65552 10.6475 3.95392 10.0967 3.40326C9.54614 2.8526 8.84448 2.4776 8.08057 2.32568C7.31689 2.17371 6.52515 2.25171 5.80566 2.54974C5.08618 2.84772 4.47119 3.35242 4.03857 3.99994C3.60596 4.64746 3.375 5.40875 3.375 6.1875C3.37622 7.23145 3.7915 8.23224 4.52954 8.9704C5.26782 9.70856 6.26855 10.1238 7.3125 10.125ZM7.3125 3.375C7.86865 3.375 8.4126 3.53998 8.875 3.849C9.33765 4.15802 9.698 4.59729 9.91089 5.11121C10.1238 5.62512 10.1794 6.19061 10.071 6.73621C9.9624 7.28174 9.69458 7.7829 9.30127 8.17627C8.90796 8.56958 8.40674 8.83746 7.86108 8.94598C7.31567 9.0545 6.75 8.99878 6.23608 8.78589C5.72217 8.57306 5.28296 8.21259 4.97388 7.75006C4.66504 7.28754 4.5 6.74377 4.5 6.1875C4.50098 5.44183 4.79761 4.72699 5.32471 4.19977C5.85205 3.67249 6.56689 3.37592 7.3125 3.375Z" fill="#FFFFFF" fill-opacity="1.000000" fill-rule="nonzero"/>
</svg>
